<mxfile host="drawio.matthewstevens.org" agent="Mozilla/5.0 (Macintosh; Intel Mac OS X 10_15_7) AppleWebKit/537.36 (KHTML, like Gecko) Chrome/134.0.0.0 Safari/537.36" version="26.1.1" pages="2">
  <diagram name="Phenom Earth Overview" id="PpOPmX-ONiufKmklO1wU">
    <mxGraphModel dx="3403" dy="967" grid="1" gridSize="10" guides="1" tooltips="1" connect="1" arrows="1" fold="1" page="1" pageScale="1" pageWidth="850" pageHeight="1100" math="0" shadow="0">
      <root>
        <mxCell id="0" />
        <mxCell id="1" parent="0" visible="0" />
        <mxCell id="xUyWhWZjI95YiDbVH0By-1" style="" parent="0" />
        <mxCell id="xUyWhWZjI95YiDbVH0By-2" value="" style="rounded=1;whiteSpace=wrap;html=1;strokeColor=#808080;fillColor=#000000;strokeWidth=4;" vertex="1" parent="xUyWhWZjI95YiDbVH0By-1">
          <mxGeometry x="-360" y="20" width="1810" height="720" as="geometry" />
        </mxCell>
        <mxCell id="xUyWhWZjI95YiDbVH0By-3" parent="0" />
        <mxCell id="xUyWhWZjI95YiDbVH0By-31" style="edgeStyle=orthogonalEdgeStyle;rounded=0;orthogonalLoop=1;jettySize=auto;html=1;exitX=0.5;exitY=1;exitDx=0;exitDy=0;entryX=0.5;entryY=0;entryDx=0;entryDy=0;strokeColor=#FF0000;strokeWidth=4;" edge="1" parent="xUyWhWZjI95YiDbVH0By-3" source="xUyWhWZjI95YiDbVH0By-4" target="xUyWhWZjI95YiDbVH0By-9">
          <mxGeometry relative="1" as="geometry">
            <Array as="points">
              <mxPoint x="555" y="240" />
              <mxPoint x="430" y="240" />
            </Array>
          </mxGeometry>
        </mxCell>
        <UserObject label="Phenom.Earth LLC" id="xUyWhWZjI95YiDbVH0By-4">
          <mxCell style="rounded=1;whiteSpace=wrap;html=1;fillColor=#fad9d5;strokeColor=#ae4132;fontStyle=1;fontSize=24;strokeWidth=4;" vertex="1" parent="xUyWhWZjI95YiDbVH0By-3">
            <mxGeometry x="445" y="100" width="200" height="80" as="geometry" />
          </mxCell>
        </UserObject>
        <mxCell id="xUyWhWZjI95YiDbVH0By-12" value="" style="edgeStyle=orthogonalEdgeStyle;rounded=0;orthogonalLoop=1;jettySize=auto;html=1;exitX=0.5;exitY=1;exitDx=0;exitDy=0;entryX=0.5;entryY=0;entryDx=0;entryDy=0;strokeColor=#CC0000;strokeWidth=4;" edge="1" parent="xUyWhWZjI95YiDbVH0By-3" source="xUyWhWZjI95YiDbVH0By-4" target="xUyWhWZjI95YiDbVH0By-5">
          <mxGeometry relative="1" as="geometry">
            <Array as="points">
              <mxPoint x="540" y="240" />
              <mxPoint x="200" y="240" />
            </Array>
          </mxGeometry>
        </mxCell>
        <mxCell id="xUyWhWZjI95YiDbVH0By-13" value="" style="edgeStyle=orthogonalEdgeStyle;rounded=0;orthogonalLoop=1;jettySize=auto;html=1;exitX=0.5;exitY=1;exitDx=0;exitDy=0;entryX=0.5;entryY=0;entryDx=0;entryDy=0;strokeColor=#CC0000;strokeWidth=4;" edge="1" parent="xUyWhWZjI95YiDbVH0By-3" source="xUyWhWZjI95YiDbVH0By-4" target="xUyWhWZjI95YiDbVH0By-6">
          <mxGeometry relative="1" as="geometry">
            <Array as="points">
              <mxPoint x="540" y="240" />
              <mxPoint x="400" y="240" />
            </Array>
          </mxGeometry>
        </mxCell>
        <mxCell id="xUyWhWZjI95YiDbVH0By-14" value="" style="edgeStyle=orthogonalEdgeStyle;rounded=0;orthogonalLoop=1;jettySize=auto;html=1;exitX=0.5;exitY=1;exitDx=0;exitDy=0;entryX=0.5;entryY=0;entryDx=0;entryDy=0;strokeColor=#CC0000;strokeWidth=4;" edge="1" parent="xUyWhWZjI95YiDbVH0By-3" source="xUyWhWZjI95YiDbVH0By-4" target="xUyWhWZjI95YiDbVH0By-7">
          <mxGeometry relative="1" as="geometry">
            <Array as="points">
              <mxPoint x="540" y="240" />
              <mxPoint x="600" y="240" />
            </Array>
          </mxGeometry>
        </mxCell>
        <mxCell id="xUyWhWZjI95YiDbVH0By-15" value="" style="edgeStyle=orthogonalEdgeStyle;rounded=0;orthogonalLoop=1;jettySize=auto;html=1;exitX=0.5;exitY=1;exitDx=0;exitDy=0;entryX=0.5;entryY=0;entryDx=0;entryDy=0;strokeColor=#CC0000;strokeWidth=4;" edge="1" parent="xUyWhWZjI95YiDbVH0By-3" source="xUyWhWZjI95YiDbVH0By-4" target="xUyWhWZjI95YiDbVH0By-8">
          <mxGeometry relative="1" as="geometry">
            <Array as="points">
              <mxPoint x="540" y="240" />
              <mxPoint x="800" y="240" />
            </Array>
          </mxGeometry>
        </mxCell>
        <mxCell id="xUyWhWZjI95YiDbVH0By-18" value="" style="edgeStyle=orthogonalEdgeStyle;rounded=0;orthogonalLoop=1;jettySize=auto;html=1;exitX=0.5;exitY=1;exitDx=0;exitDy=0;entryX=0.5;entryY=0;entryDx=0;entryDy=0;strokeColor=#CC0000;strokeWidth=4;" edge="1" parent="xUyWhWZjI95YiDbVH0By-3" source="xUyWhWZjI95YiDbVH0By-4" target="xUyWhWZjI95YiDbVH0By-11">
          <mxGeometry relative="1" as="geometry">
            <Array as="points">
              <mxPoint x="545" y="240" />
              <mxPoint x="894" y="240" />
            </Array>
          </mxGeometry>
        </mxCell>
        <mxCell id="xUyWhWZjI95YiDbVH0By-20" value="" style="edgeStyle=orthogonalEdgeStyle;rounded=0;orthogonalLoop=1;jettySize=auto;html=1;exitX=0.5;exitY=1;exitDx=0;exitDy=0;entryX=0.5;entryY=0;entryDx=0;entryDy=0;strokeColor=#CC0000;strokeWidth=4;" edge="1" parent="xUyWhWZjI95YiDbVH0By-3" source="xUyWhWZjI95YiDbVH0By-4" target="xUyWhWZjI95YiDbVH0By-19">
          <mxGeometry relative="1" as="geometry">
            <Array as="points">
              <mxPoint x="545" y="240" />
              <mxPoint x="1360" y="240" />
            </Array>
          </mxGeometry>
        </mxCell>
        <mxCell id="xUyWhWZjI95YiDbVH0By-29" value="Phenom Earth - Organizational Overview" style="text;html=1;strokeColor=none;fillColor=none;align=center;verticalAlign=middle;whiteSpace=wrap;rounded=0;fontSize=24;fontStyle=1;fontColor=#FFFFFF;" vertex="1" parent="xUyWhWZjI95YiDbVH0By-3">
          <mxGeometry x="320" y="40" width="440" height="30" as="geometry" />
        </mxCell>
        <mxCell id="xUyWhWZjI95YiDbVH0By-30" value="" style="group" vertex="1" connectable="0" parent="xUyWhWZjI95YiDbVH0By-3">
          <mxGeometry x="-350" y="320" width="1790" height="80" as="geometry" />
        </mxCell>
        <UserObject label="Legal Structure" id="xUyWhWZjI95YiDbVH0By-5">
          <mxCell style="rounded=1;whiteSpace=wrap;html=1;fillColor=#b1ddf0;strokeColor=#10739e;fontSize=20;strokeWidth=4;" vertex="1" parent="xUyWhWZjI95YiDbVH0By-30">
            <mxGeometry x="233" width="160" height="80" as="geometry" />
          </mxCell>
        </UserObject>
        <UserObject label="Infrastructure" id="xUyWhWZjI95YiDbVH0By-6">
          <mxCell style="rounded=1;whiteSpace=wrap;html=1;fillColor=#b1ddf0;strokeColor=#10739e;fontSize=20;strokeWidth=4;" vertex="1" parent="xUyWhWZjI95YiDbVH0By-30">
            <mxGeometry x="466" width="160" height="80" as="geometry" />
          </mxCell>
        </UserObject>
        <UserObject label="Communications" id="xUyWhWZjI95YiDbVH0By-7">
          <mxCell style="rounded=1;whiteSpace=wrap;html=1;fillColor=#b1ddf0;strokeColor=#10739e;fontSize=20;strokeWidth=4;" vertex="1" parent="xUyWhWZjI95YiDbVH0By-30">
            <mxGeometry x="931" width="160" height="80" as="geometry" />
          </mxCell>
        </UserObject>
        <UserObject label="Development" id="xUyWhWZjI95YiDbVH0By-8">
          <mxCell style="rounded=1;whiteSpace=wrap;html=1;fillColor=#b1ddf0;strokeColor=#10739e;fontSize=20;strokeWidth=4;" vertex="1" parent="xUyWhWZjI95YiDbVH0By-30">
            <mxGeometry x="1397" width="160" height="80" as="geometry" />
          </mxCell>
        </UserObject>
        <UserObject label="Finance" id="xUyWhWZjI95YiDbVH0By-9">
          <mxCell style="rounded=1;whiteSpace=wrap;html=1;fillColor=#b1ddf0;strokeColor=#10739e;fontSize=20;strokeWidth=4;" vertex="1" parent="xUyWhWZjI95YiDbVH0By-30">
            <mxGeometry x="699" width="160" height="80" as="geometry" />
          </mxCell>
        </UserObject>
        <UserObject label="Product(s)" id="xUyWhWZjI95YiDbVH0By-10">
          <mxCell style="rounded=1;whiteSpace=wrap;html=1;fillColor=#b1ddf0;strokeColor=#10739e;fontSize=20;strokeWidth=4;" vertex="1" parent="xUyWhWZjI95YiDbVH0By-30">
            <mxGeometry width="160" height="80" as="geometry" />
          </mxCell>
        </UserObject>
        <UserObject label="Distribution" id="xUyWhWZjI95YiDbVH0By-11">
          <mxCell style="rounded=1;whiteSpace=wrap;html=1;fillColor=#b1ddf0;strokeColor=#10739e;fontSize=20;strokeWidth=4;" vertex="1" parent="xUyWhWZjI95YiDbVH0By-30">
            <mxGeometry x="1164" width="160" height="80" as="geometry" />
          </mxCell>
        </UserObject>
        <UserObject label="Personnel" id="xUyWhWZjI95YiDbVH0By-19">
          <mxCell style="rounded=1;whiteSpace=wrap;html=1;fillColor=#b1ddf0;strokeColor=#10739e;fontSize=20;strokeWidth=4;" vertex="1" parent="xUyWhWZjI95YiDbVH0By-30">
            <mxGeometry x="1630" width="160" height="80" as="geometry" />
          </mxCell>
        </UserObject>
        <mxCell id="xUyWhWZjI95YiDbVH0By-16" value="" style="edgeStyle=orthogonalEdgeStyle;rounded=0;orthogonalLoop=1;jettySize=auto;html=1;exitX=0.5;exitY=0;exitDx=0;exitDy=0;entryX=0.5;entryY=1;entryDx=0;entryDy=0;strokeColor=#CC0000;strokeWidth=4;startArrow=block;startFill=0;endArrow=none;" edge="1" parent="xUyWhWZjI95YiDbVH0By-3" source="xUyWhWZjI95YiDbVH0By-10" target="xUyWhWZjI95YiDbVH0By-4">
          <mxGeometry relative="1" as="geometry">
            <Array as="points">
              <mxPoint x="-270" y="240" />
              <mxPoint x="545" y="240" />
            </Array>
          </mxGeometry>
        </mxCell>
      </root>
    </mxGraphModel>
  </diagram>
  <diagram id="JIsm8RVBqB5PRxUO-C_L" name="Page-2">
    <mxGraphModel dx="2553" dy="967" grid="1" gridSize="10" guides="1" tooltips="1" connect="1" arrows="1" fold="1" page="1" pageScale="1" pageWidth="850" pageHeight="1100" math="0" shadow="0">
      <root>
        <mxCell id="0" />
        <mxCell id="1" parent="0" />
      </root>
    </mxGraphModel>
  </diagram>
</mxfile>
